<svg width="51" height="48" viewBox="0 0 51 48" fill="none" xmlns="http://www.w3.org/2000/svg">
<g id="Iconly/Light-outline/Buy">
<g id="Buy">
<path id="Buy_2" fill-rule="evenodd" clip-rule="evenodd" d="M6.11532 5.02198L5.89975 5.00076C5.11523 4.97376 4.41072 5.49592 4.27312 6.24419L4.25057 6.44708C4.22189 7.18545 4.77669 7.84852 5.57172 7.97803L8.77836 8.5L10.7217 30.2915L10.762 30.619C11.1529 33.1039 13.4238 34.972 16.1285 34.972H39.3165L39.6658 34.9615C42.208 34.8087 44.3158 32.9993 44.6868 30.5956L46.7036 17.4788L46.7384 17.1775C46.924 14.7794 44.9054 12.698 42.3064 12.698H12.3505L11.8517 7.09454L11.8141 6.87283C11.6687 6.29619 11.1706 5.84546 10.5353 5.74198L6.11532 5.02198ZM15.8822 31.9594C14.8297 31.8509 13.988 31.0555 13.8981 30.0413L12.6182 15.698H42.3064L42.4937 15.711C43.1647 15.8048 43.6494 16.3954 43.5489 17.0493L41.5323 30.1652L41.4817 30.3997C41.226 31.3168 40.3432 31.972 39.3165 31.972H16.1285L15.8822 31.9594ZM12.5551 41.1706C12.5551 39.4984 13.9952 38.1406 15.7724 38.1406C17.5493 38.1406 18.9917 39.4982 18.9917 41.1706C18.9917 42.8433 17.5491 44.1986 15.7724 44.1986C13.9954 44.1986 12.5551 42.843 12.5551 41.1706ZM36.4643 41.1706C36.4643 39.4982 37.9068 38.1406 39.6837 38.1406C41.4607 38.1406 42.9031 39.4982 42.9031 41.1706C42.9031 42.8433 41.4604 44.1986 39.6837 44.1986C37.907 44.1986 36.4643 42.8433 36.4643 41.1706ZM37.5028 21.59C37.5028 20.7616 36.7893 20.09 35.9091 20.09H30.0164L29.8002 20.1037C29.0223 20.203 28.4227 20.8306 28.4227 21.59C28.4227 22.4184 29.1362 23.09 30.0164 23.09H35.9091L36.1253 23.0763C36.9032 22.977 37.5028 22.3494 37.5028 21.59Z" fill="#200E32"/>
</g>
</g>
</svg>
